<svg width="420" height="420" viewBox="0 0 420 420" fill="none" xmlns="http://www.w3.org/2000/svg">
<g clip-path="url(#clip0_6016_15694)">
<path d="M328.188 329.459V178.462H370.44L209.949 33.7549L49.458 178.462H92.4229V329.459C92.4229 340.32 92.4238 345.751 95.7979 349.125C99.172 352.499 104.602 352.499 115.463 352.499H189.885V498.001H229.885V352.499H305.148C316.009 352.499 321.439 352.499 324.813 349.125C328.188 345.751 328.188 340.32 328.188 329.459ZM352.188 329.459C352.188 334.212 352.239 340.19 351.552 345.299C350.772 351.097 348.673 359.207 341.784 366.096L341.783 366.097C334.894 372.985 326.784 375.084 320.986 375.863C315.878 376.55 309.901 376.499 305.148 376.499H253.885V522.001H165.885V376.499H115.463C110.711 376.499 104.733 376.55 99.625 375.863C93.8271 375.084 85.7172 372.985 78.8281 366.097L78.8271 366.096C71.9384 359.207 69.8396 351.097 69.0596 345.299C68.3724 340.19 68.4229 334.212 68.4229 329.459V202.462C44.1273 202.462 31.9795 202.462 26.4806 198.02C20.9126 193.522 18.1727 186.392 19.2961 179.323C20.4055 172.342 29.4275 164.207 47.4714 147.938L209.949 1.43945L372.956 148.415C390.556 164.284 399.356 172.218 400.548 178.998C401.829 186.28 398.987 193.674 393.16 198.225C387.734 202.462 375.885 202.462 352.188 202.462V329.459Z" fill="#FF6C01"/>
<path d="M267.263 128.157C271.377 127.097 275.385 130.203 275.385 134.451V266.208C275.385 279.712 262.546 290.253 247.252 290.253C231.959 290.253 219.12 279.712 219.12 266.208C219.12 252.704 231.959 242.163 247.252 242.163C250.897 242.163 254.385 242.757 257.589 243.838V158.332L183.651 176.229V303.455C183.651 316.959 170.811 327.5 155.518 327.5C140.225 327.5 127.385 316.959 127.385 303.455C127.385 289.951 140.225 279.411 155.518 279.411C159.163 279.411 162.651 280.004 165.855 281.085V159.32C165.855 156.355 167.862 153.766 170.733 153.026L267.263 128.157Z" fill="#FF6C01" stroke="#FF6C01" stroke-width="3"/>
</g>
<defs>
<clipPath id="clip0_6016_15694">
<rect width="420" height="420" fill="white"/>
</clipPath>
</defs>
</svg>
