<svg width="420" height="420" viewBox="0 0 420 420" fill="none" xmlns="http://www.w3.org/2000/svg">
<g clip-path="url(#clip0_6016_15694)">
<path d="M372.957 148.415C390.556 164.283 399.355 172.218 400.548 178.998C401.828 186.28 398.988 193.675 393.16 198.226C387.735 202.462 375.885 202.462 352.188 202.462V329.459C352.188 334.212 352.239 340.19 351.552 345.299C350.772 351.097 348.673 359.207 341.784 366.096L341.783 366.097C334.894 372.985 326.784 375.084 320.986 375.863C315.878 376.55 309.901 376.499 305.148 376.499H253.885V522.001H165.885V376.499H115.463C110.711 376.499 104.733 376.55 99.625 375.863C93.8271 375.084 85.7172 372.985 78.8281 366.097L78.8271 366.096C71.9385 359.207 69.8396 351.097 69.0596 345.299C68.3724 340.19 68.4229 334.212 68.4229 329.459V202.462C44.1274 202.462 31.9793 202.462 26.4805 198.021C20.9125 193.523 18.1727 186.392 19.2959 179.323C20.4053 172.342 29.4277 164.207 47.4717 147.938L209.949 1.43945L372.957 148.415ZM282.139 113.095L162.384 143.866L160.131 144.445V285.855C156.882 284.939 153.416 284.445 149.824 284.445C132.129 284.445 116.886 296.65 116.886 312.723C116.886 328.795 132.129 341 149.824 341C167.52 341 182.764 328.795 182.764 312.723V171.114L263.253 151.681V244.093C260.005 243.177 256.539 242.684 252.947 242.684C235.252 242.684 220.008 254.887 220.008 270.96C220.008 287.033 235.252 299.237 252.947 299.237C270.643 299.237 285.886 287.033 285.886 270.96V112.132L282.139 113.095ZM179.731 313.864C179.727 313.946 179.723 314.027 179.718 314.108C179.723 314.027 179.727 313.946 179.731 313.864ZM179.759 313.023C179.76 312.923 179.763 312.823 179.763 312.723V168.753L266.253 147.871L179.764 168.753V312.723C179.764 312.823 179.76 312.923 179.759 313.023ZM223.162 268.376C223.186 268.181 223.212 267.986 223.24 267.792L223.162 268.376ZM223.522 266.272C223.419 266.737 223.33 267.206 223.258 267.679C223.319 267.278 223.391 266.88 223.475 266.485C223.49 266.414 223.507 266.343 223.522 266.272ZM223.566 266.078C223.611 265.889 223.657 265.7 223.706 265.512C223.657 265.7 223.61 265.889 223.566 266.078ZM223.95 264.644C223.878 264.879 223.811 265.116 223.747 265.354C223.756 265.32 223.765 265.286 223.774 265.252C223.83 265.048 223.889 264.845 223.95 264.643V264.644ZM265.543 248.022L266.253 248.311L265.512 248.011C265.522 248.015 265.533 248.018 265.543 248.022ZM253.84 245.694C254.131 245.702 254.42 245.712 254.709 245.727C254.126 245.698 253.538 245.684 252.946 245.684L253.84 245.694ZM179.754 313.375C179.752 313.434 179.747 313.494 179.745 313.553C179.749 313.447 179.753 313.341 179.756 313.235C179.755 313.282 179.755 313.329 179.754 313.375Z" fill="#FF6C01"/>
</g>
<defs>
<clipPath id="clip0_6016_15694">
<rect width="420" height="420" fill="white"/>
</clipPath>
</defs>
</svg>
