<svg width="227" height="227" viewBox="0 0 227 227" fill="none" xmlns="http://www.w3.org/2000/svg">
<mask id="mask0_3533_17123" style="mask-type:alpha" maskUnits="userSpaceOnUse" x="0" y="0" width="227" height="227">
<path fill-rule="evenodd" clip-rule="evenodd" d="M113.333 226.667C175.926 226.667 226.667 175.926 226.667 113.333C226.667 50.7411 175.926 0 113.333 0C50.7411 0 0 50.7411 0 113.333C0 175.926 50.7411 226.667 113.333 226.667ZM113.333 115.874C114.737 115.874 115.874 114.737 115.874 113.333C115.874 111.93 114.737 110.792 113.333 110.792C111.93 110.792 110.792 111.93 110.792 113.333C110.792 114.737 111.93 115.874 113.333 115.874Z" fill="#0D0D0D"/>
</mask>
<g mask="url(#mask0_3533_17123)">
<path fill-rule="evenodd" clip-rule="evenodd" d="M113.333 226.667C175.926 226.667 226.667 175.926 226.667 113.333C226.667 50.7411 175.926 0 113.333 0C50.7411 0 0 50.7411 0 113.333C0 175.926 50.7411 226.667 113.333 226.667ZM113.333 115.874C114.737 115.874 115.874 114.737 115.874 113.333C115.874 111.93 114.737 110.792 113.333 110.792C111.93 110.792 110.792 111.93 110.792 113.333C110.792 114.737 111.93 115.874 113.333 115.874Z" fill="#0D0D0D"/>
<circle cx="113.333" cy="113.333" r="110.739" stroke="url(#paint0_linear_3533_17123)" stroke-opacity="0.3" stroke-width="5.18784"/>
<circle cx="113.333" cy="113.333" r="96.0111" stroke="url(#paint1_linear_3533_17123)" stroke-width="0.59365"/>
<circle cx="113.333" cy="113.333" r="79.748" stroke="url(#paint2_linear_3533_17123)" stroke-width="0.59365"/>
<circle cx="113.333" cy="113.333" r="61.9603" stroke="url(#paint3_linear_3533_17123)" stroke-width="0.59365"/>
<circle cx="113.333" cy="113.333" r="42.9447" fill="url(#paint4_linear_3533_17123)" fill-opacity="0.18"/>
</g>
<mask id="mask1_3533_17123" style="mask-type:alpha" maskUnits="userSpaceOnUse" x="74" y="74" width="78" height="78">
<path fill-rule="evenodd" clip-rule="evenodd" d="M113.333 151.733C134.541 151.733 151.733 134.541 151.733 113.333C151.733 92.1256 134.541 74.9333 113.333 74.9333C92.1254 74.9333 74.9331 92.1256 74.9331 113.333C74.9331 134.541 92.1254 151.733 113.333 151.733ZM113.333 115.876C114.737 115.876 115.876 114.738 115.876 113.333C115.876 111.929 114.737 110.79 113.333 110.79C111.929 110.79 110.79 111.929 110.79 113.333C110.79 114.738 111.929 115.876 113.333 115.876Z" fill="url(#paint5_linear_3533_17123)"/>
</mask>
<g mask="url(#mask1_3533_17123)">
<circle cx="113.333" cy="113.333" r="11.9005" stroke="url(#paint6_linear_3533_17123)" stroke-opacity="0.5" stroke-width="0.59365"/>
</g>
<defs>
<linearGradient id="paint0_linear_3533_17123" x1="0" y1="0" x2="226.667" y2="226.667" gradientUnits="userSpaceOnUse">
<stop stop-color="white"/>
<stop offset="0.5" stop-color="white" stop-opacity="0"/>
</linearGradient>
<linearGradient id="paint1_linear_3533_17123" x1="17.0249" y1="17.0255" x2="209.641" y2="209.641" gradientUnits="userSpaceOnUse">
<stop/>
<stop offset="0.5" stop-color="white" stop-opacity="0"/>
<stop offset="1"/>
</linearGradient>
<linearGradient id="paint2_linear_3533_17123" x1="33.2883" y1="33.2885" x2="193.378" y2="193.378" gradientUnits="userSpaceOnUse">
<stop/>
<stop offset="0.5" stop-color="white" stop-opacity="0"/>
<stop offset="1"/>
</linearGradient>
<linearGradient id="paint3_linear_3533_17123" x1="51.0762" y1="51.0763" x2="175.59" y2="175.59" gradientUnits="userSpaceOnUse">
<stop/>
<stop offset="0.5" stop-color="white" stop-opacity="0"/>
<stop offset="1"/>
</linearGradient>
<linearGradient id="paint4_linear_3533_17123" x1="70.3887" y1="70.3886" x2="156.278" y2="156.278" gradientUnits="userSpaceOnUse">
<stop stop-color="white"/>
<stop offset="0.5" stop-color="white" stop-opacity="0"/>
<stop offset="1" stop-color="white"/>
</linearGradient>
<linearGradient id="paint5_linear_3533_17123" x1="74.9331" y1="74.9333" x2="153.97" y2="77.3091" gradientUnits="userSpaceOnUse">
<stop stop-color="#24FF89"/>
<stop offset="1" stop-color="#3DFFA2"/>
</linearGradient>
<linearGradient id="paint6_linear_3533_17123" x1="101.136" y1="101.136" x2="125.53" y2="125.531" gradientUnits="userSpaceOnUse">
<stop/>
<stop offset="0.869792" stop-opacity="0"/>
</linearGradient>
</defs>
</svg>
